<?xml version="1.0" encoding="UTF-8" standalone="no"?>
<!-- Created with Inkscape (http://www.inkscape.org/) -->

<svg
   width="180.48167mm"
   height="37.94696mm"
   viewBox="0 0 180.48167 37.94696"
   version="1.1"
   id="svg30967"
   inkscape:version="1.1.2 (b8e25be8, 2022-02-05)"
   sodipodi:docname="logo.svg"
   xmlns:inkscape="http://www.inkscape.org/namespaces/inkscape"
   xmlns:sodipodi="http://sodipodi.sourceforge.net/DTD/sodipodi-0.dtd"
   xmlns="http://www.w3.org/2000/svg"
   xmlns:svg="http://www.w3.org/2000/svg">
  <sodipodi:namedview
     id="namedview30969"
     pagecolor="#ffffff"
     bordercolor="#666666"
     borderopacity="1.0"
     inkscape:pageshadow="2"
     inkscape:pageopacity="0.0"
     inkscape:pagecheckerboard="0"
     inkscape:document-units="mm"
     showgrid="false"
     inkscape:zoom="0.90583672"
     inkscape:cx="365.40802"
     inkscape:cy="277.09188"
     inkscape:window-width="1475"
     inkscape:window-height="962"
     inkscape:window-x="2033"
     inkscape:window-y="683"
     inkscape:window-maximized="0"
     inkscape:current-layer="layer1" />
  <defs
     id="defs30964" />
  <g
     inkscape:label="Layer 1"
     inkscape:groupmode="layer"
     id="layer1"
     transform="translate(140.04086,-38.37536)">
    <g
       aria-label="WIZARDCATS"
       id="text1777"
       style="font-size:24.8135px;line-height:1.25;font-family:Montserrat;-inkscape-font-specification:Montserrat;fill:#ffe40f;stroke-width:1.62655;stroke-linecap:round;stroke-linejoin:round;paint-order:stroke fill markers">
      <path
         d="m -131.58013,56.626724 -5.68229,-17.369449 h 4.16867 l 4.93788,15.384369 h -2.08433 l 5.16121,-15.384369 h 3.72202 l 4.9627,15.384369 h -2.00989 l 5.06195,-15.384369 h 3.84609 l -5.68229,17.369449 h -4.31755 l -4.39199,-13.498543 h 1.14143 l -4.51606,13.498543 z"
         style="font-weight:bold;-inkscape-font-specification:'Montserrat Bold'"
         id="path31786" />
      <path
         d="M -107.30051,56.626724 V 39.257275 h 4.01979 v 17.369449 z"
         style="font-weight:bold;-inkscape-font-specification:'Montserrat Bold'"
         id="path31788" />
      <path
         d="m -100.27519,56.626724 v -2.605417 l 10.744247,-12.952647 0.49627,1.463997 h -11.042007 v -3.275382 h 14.615151 v 2.605417 l -10.719432,12.952647 -0.49627,-1.463997 h 11.587904 v 3.275382 z"
         style="font-weight:bold;-inkscape-font-specification:'Montserrat Bold'"
         id="path31790" />
      <path
         d="m -84.769853,56.626724 7.741812,-17.369449 h 3.97016 l 7.766625,17.369449 h -4.218295 l -6.352256,-15.334742 h 1.588064 l -6.377069,15.334742 z m 3.870906,-3.722025 1.06698,-3.05206 h 8.93286 l 1.091794,3.05206 z"
         style="font-weight:bold;-inkscape-font-specification:'Montserrat Bold'"
         id="path31792" />
      <path
         d="M -63.48917,56.626724 V 39.257275 h 7.51849 q 2.332469,0 4.019787,0.769218 1.687318,0.744405 2.605417,2.158775 0.9181,1.414369 0.9181,3.374635 0,1.935453 -0.9181,3.349823 -0.918099,1.389556 -2.605417,2.133961 -1.687318,0.744405 -4.019787,0.744405 h -5.285275 l 1.786572,-1.761759 v 6.600391 z m 11.042007,0 -4.342362,-6.302629 h 4.292735 l 4.391989,6.302629 z m -7.02222,-6.153748 -1.786572,-1.885826 h 5.061953 q 1.861013,0 2.779112,-0.794032 0.9181,-0.818845 0.9181,-2.233215 0,-1.439182 -0.9181,-2.233214 -0.918099,-0.794032 -2.779112,-0.794032 h -5.061953 l 1.786572,-1.91064 z"
         style="font-weight:bold;-inkscape-font-specification:'Montserrat Bold'"
         id="path31794" />
      <path
         d="M -45.266758,56.626724 V 39.257275 h 7.890693 q 2.828739,0 4.987513,1.091794 2.158774,1.06698 3.374636,3.002433 1.215861,1.935453 1.215861,4.590497 0,2.630231 -1.215861,4.590498 -1.215862,1.935453 -3.374636,3.027247 -2.158774,1.06698 -4.987513,1.06698 z m 4.019787,-3.300195 h 3.672398 q 1.736945,0 3.002433,-0.645151 1.290302,-0.669965 1.98508,-1.885826 0.719591,-1.215862 0.719591,-2.853553 0,-1.662504 -0.719591,-2.853552 -0.694778,-1.215861 -1.98508,-1.861012 -1.265488,-0.669965 -3.002433,-0.669965 h -3.672398 z"
         style="font-weight:bold;-inkscape-font-specification:'Montserrat Bold'"
         id="path31796" />
      <path
         d="m -16.454022,56.924486 q -2.009894,0 -3.746839,-0.645151 -1.712131,-0.669964 -2.97762,-1.885826 -1.265488,-1.215861 -1.98508,-2.853552 -0.694778,-1.637691 -0.694778,-3.597958 0,-1.960266 0.694778,-3.597957 0.719592,-1.637691 1.98508,-2.853552 1.290302,-1.215862 3.002434,-1.861013 1.712131,-0.669964 3.746838,-0.669964 2.258029,0 4.069414,0.794032 1.836199,0.769218 3.076874,2.282842 l -2.580604,2.382096 q -0.893286,-1.017354 -1.98508,-1.513624 -1.091794,-0.521083 -2.382096,-0.521083 -1.215861,0 -2.233215,0.397016 -1.017353,0.397016 -1.761758,1.141421 -0.744405,0.744405 -1.166235,1.761758 -0.397016,1.017353 -0.397016,2.258028 0,1.240675 0.397016,2.258029 0.42183,1.017353 1.166235,1.761758 0.744405,0.744405 1.761758,1.141421 1.017354,0.397016 2.233215,0.397016 1.290302,0 2.382096,-0.49627 1.091794,-0.521083 1.98508,-1.56325 l 2.580604,2.382096 q -1.240675,1.513623 -3.076874,2.307655 -1.811385,0.794032 -4.094227,0.794032 z"
         style="font-weight:bold;-inkscape-font-specification:'Montserrat Bold'"
         id="path31798" />
      <path
         d="M -9.3600708,56.626724 -1.6182589,39.257275 H 2.351901 l 7.766625,17.369449 H 5.9002314 L -0.45202446,41.291982 H 1.1360395 l -6.3770694,15.334742 z m 3.870906,-3.722025 1.0669804,-3.05206 h 8.9328598 l 1.091794,3.05206 z"
         style="font-weight:bold;-inkscape-font-specification:'Montserrat Bold'"
         id="path31800" />
      <path
         d="M 14.646217,56.626724 V 42.532657 H 9.087993 v -3.275382 h 15.136235 v 3.275382 h -5.558224 v 14.094067 z"
         style="font-weight:bold;-inkscape-font-specification:'Montserrat Bold'"
         id="path31802" />
      <path
         d="m 31.682229,56.924486 q -2.084334,0 -3.994973,-0.545897 -1.91064,-0.57071 -3.076874,-1.463996 l 1.364742,-3.027247 q 1.116608,0.794032 2.630231,1.315115 1.538437,0.49627 3.101687,0.49627 1.191048,0 1.91064,-0.223321 0.744405,-0.248135 1.091794,-0.669965 0.347389,-0.421829 0.347389,-0.967726 0,-0.694778 -0.545897,-1.091794 -0.545897,-0.42183 -1.439183,-0.669965 -0.893286,-0.272948 -1.98508,-0.49627 -1.06698,-0.248135 -2.158774,-0.595524 -1.066981,-0.347389 -1.960267,-0.893286 -0.893286,-0.545897 -1.463996,-1.439183 -0.545897,-0.893286 -0.545897,-2.282841 0,-1.48881 0.794032,-2.704672 0.818845,-1.240675 2.431723,-1.960266 1.637691,-0.744405 4.094227,-0.744405 1.637691,0 3.225755,0.397016 1.588064,0.372202 2.803925,1.141421 l -1.240675,3.05206 q -1.215861,-0.694778 -2.431723,-1.017353 -1.215861,-0.347389 -2.382096,-0.347389 -1.166234,0 -1.910639,0.272948 -0.744405,0.272949 -1.06698,0.719592 -0.322576,0.421829 -0.322576,0.99254 0,0.669964 0.545897,1.091793 0.545897,0.397016 1.439183,0.645151 0.893286,0.248135 1.960266,0.49627 1.091794,0.248135 2.158775,0.570711 1.091794,0.322575 1.98508,0.868472 0.893286,0.545897 1.439183,1.439183 0.57071,0.893286 0.57071,2.258029 0,1.463996 -0.818845,2.679858 -0.818846,1.215861 -2.456537,1.960266 -1.612877,0.744405 -4.094227,0.744405 z"
         style="font-weight:bold;-inkscape-font-specification:'Montserrat Bold'"
         id="path31804" />
    </g>
    <g
       aria-label="WRESTLING"
       id="text1777-4"
       style="font-size:21.64px;line-height:1.25;font-family:Montserrat;-inkscape-font-specification:Montserrat;fill:#ffe400;stroke-width:1.35595;stroke-linecap:round;stroke-linejoin:round;paint-order:stroke fill markers">
      <path
         d="m -112.4285,75.770554 -4.95556,-15.148 h 3.63552 l 4.30636,13.4168 h -1.81776 l 4.50112,-13.4168 h 3.246 l 4.328002,13.4168 h -1.752842 l 4.414561,-13.4168 h 3.3542 l -4.955559,15.148 h -3.765362 l -3.83028,-11.77216 h 0.99544 l -3.93848,11.77216 z"
         style="font-weight:bold;-inkscape-font-specification:'Montserrat Bold'"
         id="path31767" />
      <path
         d="m -91.254097,75.770554 v -15.148 h 6.55692 q 2.03416,0 3.50568,0.67084 1.47152,0.6492 2.2722,1.88268 0.80068,1.23348 0.80068,2.94304 0,1.68792 -0.80068,2.9214 -0.80068,1.21184 -2.2722,1.86104 -1.47152,0.6492 -3.50568,0.6492 h -4.60932 l 1.55808,-1.53644 v 5.75624 z m 9.6298,0 -3.787,-5.49656 h 3.74372 l 3.83028,5.49656 z m -6.12412,-5.36672 -1.55808,-1.64464 h 4.41456 q 1.623,0 2.42368,-0.69248 0.80068,-0.71412 0.80068,-1.9476 0,-1.25512 -0.80068,-1.9476 -0.80068,-0.69248 -2.42368,-0.69248 h -4.41456 l 1.55808,-1.66628 z"
         style="font-weight:bold;-inkscape-font-specification:'Montserrat Bold'"
         id="path31769" />
      <path
         d="m -72.137861,66.725034 h 7.29268 v 2.72664 h -7.29268 z m 0.25968,6.23232 h 8.24484 v 2.8132 h -11.72888 v -15.148 h 11.44756 v 2.8132 h -7.96352 z"
         style="font-weight:bold;-inkscape-font-specification:'Montserrat Bold'"
         id="path31771" />
      <path
         d="m -55.845649,76.030234 q -1.81776,0 -3.48404,-0.47608 -1.66628,-0.49772 -2.68336,-1.27676 l 1.1902,-2.64008 q 0.9738,0.69248 2.29384,1.14692 1.34168,0.4328 2.705,0.4328 1.03872,0 1.66628,-0.19476 0.6492,-0.2164 0.95216,-0.58428 0.30296,-0.36788 0.30296,-0.84396 0,-0.60592 -0.47608,-0.95216 -0.47608,-0.36788 -1.25512,-0.58428 -0.77904,-0.23804 -1.7312,-0.4328 -0.93052,-0.2164 -1.88268,-0.51936 -0.93052,-0.30296 -1.70956,-0.77904 -0.77904,-0.47608 -1.27676,-1.25512 -0.47608,-0.77904 -0.47608,-1.99088 0,-1.2984 0.69248,-2.35876 0.71412,-1.082 2.12072,-1.70956 1.42824,-0.6492 3.5706,-0.6492 1.42824,0 2.8132,0.34624 1.38496,0.3246 2.44532,0.99544 l -1.082,2.66172 q -1.06036,-0.60592 -2.12072,-0.88724 -1.06036,-0.30296 -2.07744,-0.30296 -1.01708,0 -1.66628,0.23804 -0.6492,0.23804 -0.93052,0.62756 -0.28132,0.36788 -0.28132,0.8656 0,0.58428 0.47608,0.95216 0.47608,0.34624 1.25512,0.56264 0.77904,0.2164 1.70956,0.4328 0.95216,0.2164 1.88268,0.49772 0.95216,0.28132 1.7312,0.7574 0.77904,0.47608 1.25512,1.25512 0.49772,0.77904 0.49772,1.96924 0,1.27676 -0.71412,2.33712 -0.71412,1.06036 -2.14236,1.70956 -1.4066,0.6492 -3.5706,0.6492 z"
         style="font-weight:bold;-inkscape-font-specification:'Montserrat Bold'"
         id="path31773" />
      <path
         d="m -44.075518,75.770554 v -12.29152 h -4.84736 v -2.85648 h 13.2004 v 2.85648 h -4.84736 v 12.29152 z"
         style="font-weight:bold;-inkscape-font-specification:'Montserrat Bold'"
         id="path31775" />
      <path
         d="m -33.857383,75.770554 v -15.148 h 3.505679 v 12.29152 h 7.59564 v 2.85648 z"
         style="font-weight:bold;-inkscape-font-specification:'Montserrat Bold'"
         id="path31777" />
      <path
         d="m -20.797302,75.770554 v -15.148 h 3.50568 v 15.148 z"
         style="font-weight:bold;-inkscape-font-specification:'Montserrat Bold'"
         id="path31779" />
      <path
         d="m -13.696678,75.770554 v -15.148 h 2.89976 l 8.9373198,10.90656 h -1.4066 v -10.90656 h 3.46239991 v 15.148 H -2.6819182 l -8.9589598,-10.90656 h 1.4066 v 10.90656 z"
         style="font-weight:bold;-inkscape-font-specification:'Montserrat Bold'"
         id="path31781" />
      <path
         d="m 11.115612,76.030234 q -1.7961195,0 -3.3109194,-0.56264 -1.49316,-0.58428 -2.61844,-1.64464 -1.1036399,-1.06036 -1.7311999,-2.4886 -0.60592,-1.42824 -0.60592,-3.1378 0,-1.70956 0.60592,-3.1378 0.62756,-1.42824 1.7528399,-2.4886 1.12528,-1.06036 2.64008,-1.623 1.5147999,-0.58428 3.3325594,-0.58428 2.01252,0 3.61388,0.67084 1.623,0.67084 2.72664,1.9476 l -2.25056,2.07744 q -0.82232,-0.8656 -1.79612,-1.27676 -0.9738,-0.4328 -2.12072,-0.4328 -1.10364,0 -2.0125195,0.34624 -0.90888,0.34624 -1.5797199,0.99544 -0.6492,0.6492 -1.01708,1.53644 -0.34624,0.88724 -0.34624,1.96924 0,1.06036 0.34624,1.9476 0.36788,0.88724 1.01708,1.55808 0.6708399,0.6492 1.5580799,0.99544 0.9088795,0.34624 1.9908795,0.34624 1.03872,0 2.01252,-0.3246 0.99544,-0.34624 1.92596,-1.14692 l 1.99088,2.53188 q -1.23348,0.93052 -2.87812,1.42824 -1.623,0.49772 -3.246,0.49772 z m 2.9214,-2.3804 v -5.69132 h 3.20272 v 6.14576 z"
         style="font-weight:bold;-inkscape-font-specification:'Montserrat Bold'"
         id="path31783" />
    </g>
  </g>
</svg>
