<?xml version="1.0" encoding="UTF-8" standalone="no"?>
<!-- Created with Inkscape (http://www.inkscape.org/) -->

<svg
   width="131.04884mm"
   height="131.20538mm"
   viewBox="0 0 131.04884 131.20538"
   version="1.1"
   id="svg5"
   sodipodi:docname="problem.svg"
   inkscape:version="1.1.2 (b8e25be8, 2022-02-05)"
   xmlns:inkscape="http://www.inkscape.org/namespaces/inkscape"
   xmlns:sodipodi="http://sodipodi.sourceforge.net/DTD/sodipodi-0.dtd"
   xmlns="http://www.w3.org/2000/svg"
   xmlns:svg="http://www.w3.org/2000/svg">
  <sodipodi:namedview
     id="namedview7"
     pagecolor="#ffffff"
     bordercolor="#666666"
     borderopacity="1.0"
     inkscape:pageshadow="2"
     inkscape:pageopacity="0.0"
     inkscape:pagecheckerboard="0"
     inkscape:document-units="mm"
     showgrid="false"
     inkscape:zoom="0.70710678"
     inkscape:cx="389.61584"
     inkscape:cy="190.91883"
     inkscape:window-width="1728"
     inkscape:window-height="962"
     inkscape:window-x="857"
     inkscape:window-y="1478"
     inkscape:window-maximized="1"
     inkscape:current-layer="layer1" />
  <defs
     id="defs2">
    <rect
       x="-357.79602"
       y="411.53616"
       width="295.57062"
       height="90.509666"
       id="rect34035" />
    <rect
       x="-357.79602"
       y="411.53616"
       width="295.57062"
       height="90.509666"
       id="rect34035-5" />
  </defs>
  <g
     inkscape:label="Layer 1"
     inkscape:groupmode="layer"
     id="layer1"
     transform="translate(117.31635,-13.109816)">
    <g
       id="g40835"
       transform="translate(2.1094347)">
      <path
         style="fill:#000000;fill-opacity:1;stroke:none;stroke-width:1.165;stroke-linecap:round;stroke-linejoin:round;paint-order:stroke fill markers"
         d="m -118.28385,90.87805 c 6.36677,33.69145 37.599986,56.80067 71.680411,53.03579 34.125754,-3.86847 59.495013,-33.39735 58.177438,-67.716386 L -7.3619461,88.988936 -28.675664,80.74773 c -0.972086,12.10617 -10.378348,21.83028 -22.445543,23.20401 -12.05077,1.32504 -23.358154,-6.051025 -27.001815,-17.613923 l -21.2693,-8.246228 z"
         id="path33339" />
      <path
         style="fill:#666666;fill-opacity:1;stroke:none;stroke-width:1.165;stroke-linecap:round;stroke-linejoin:round;paint-order:stroke fill markers"
         d="m -61.345627,13.511178 c -34.060789,3.938569 -59.346613,33.437344 -58.031093,67.699846 l 18.89153,-12.78646 21.269299,8.246227 C -78.2456,64.58628 -68.870304,54.872005 -56.82786,53.473285 c 12.050773,-1.325049 23.358155,6.051023 27.001815,17.613921 L -8.5567443,79.333434 10.334784,66.546973 C 3.9680185,32.855521 -27.265203,9.7462965 -61.345627,13.511178 Z"
         id="path846" />
    </g>
    <g
       aria-label="02
COMPETE"
       transform="matrix(0.26458333,0,0,0.26458333,3.8048881,4.2333335)"
       id="text34033"
       style="font-size:26.6667px;line-height:1.25;font-family:Montserrat;-inkscape-font-specification:Montserrat;text-align:center;text-anchor:middle;white-space:pre;shape-inside:url(#rect34035);fill:#ffffff">
      <path
         d="m -217.59034,436.2063 q -2.16,0 -3.84,-1.12 -1.68,-1.14667 -2.64,-3.25334 -0.96,-2.13333 -0.96,-5.12 0,-2.98667 0.96,-5.09334 0.96,-2.13334 2.64,-3.25334 1.68,-1.14667 3.84,-1.14667 2.16001,0 3.84001,1.14667 1.68,1.12 2.64,3.25334 0.98667,2.10667 0.98667,5.09334 0,2.98667 -0.98667,5.12 -0.96,2.10667 -2.64,3.25334 -1.68,1.12 -3.84001,1.12 z m 0,-1.76 q 1.65334,0 2.88001,-0.88 1.22667,-0.90667 1.92,-2.61334 0.69334,-1.73333 0.69334,-4.24 0,-2.50667 -0.69334,-4.21334 -0.69333,-1.73334 -1.92,-2.61334 -1.22667,-0.90667 -2.88001,-0.90667 -1.6,0 -2.85333,0.90667 -1.25334,0.88 -1.94667,2.61334 -0.69334,1.70667 -0.69334,4.21334 0,2.50667 0.69334,4.24 0.69333,1.70667 1.94667,2.61334 1.25333,0.88 2.85333,0.88 z"
         id="path40837" />
      <path
         d="m -207.72074,436.0463 v -1.36 l 7.76001,-7.60001 q 1.06667,-1.04 1.6,-1.81334 0.53334,-0.8 0.72,-1.49333 0.18667,-0.69334 0.18667,-1.30667 0,-1.62667 -1.12,-2.56 -1.09334,-0.93334 -3.25334,-0.93334 -1.65333,0 -2.93333,0.50667 -1.25334,0.50667 -2.16001,1.57334 l -1.36,-1.17334 q 1.09334,-1.28 2.8,-1.97334 1.70667,-0.69333 3.81334,-0.69333 1.89334,0 3.28001,0.61333 1.38666,0.58667 2.13333,1.73334 0.77334,1.14667 0.77334,2.69334 0,0.90666 -0.26667,1.78667 -0.24,0.88 -0.90667,1.86666 -0.64,0.96001 -1.89333,2.18667 l -7.12001,6.98668 -0.53334,-0.74667 h 11.57335 v 1.70667 z"
         id="path40839" />
      <path
         d="m -267.1454,469.53968 q -2.10667,0 -3.89334,-0.69334 -1.78666,-0.72 -3.09333,-2 -1.30667,-1.28 -2.05334,-3.01334 -0.72,-1.73333 -0.72,-3.78667 0,-2.05334 0.72,-3.78667 0.74667,-1.73334 2.05334,-3.01334 1.33333,-1.28 3.12,-1.97333 1.78667,-0.72001 3.89334,-0.72001 2.02667,0 3.81334,0.69334 1.78667,0.66667 3.01333,2.02667 l -1.25333,1.25333 q -1.14667,-1.17333 -2.53334,-1.68 -1.38667,-0.53333 -2.98667,-0.53333 -1.68,0 -3.12,0.58666 -1.44,0.56 -2.50667,1.62667 -1.06667,1.04 -1.68,2.45334 -0.58667,1.38667 -0.58667,3.06667 0,1.68 0.58667,3.09334 0.61333,1.38667 1.68,2.45333 1.06667,1.04 2.50667,1.62667 1.44,0.56 3.12,0.56 1.6,0 2.98667,-0.53333 1.38667,-0.53334 2.53334,-1.70667 l 1.25333,1.25333 q -1.22666,1.36001 -3.01333,2.05334 -1.78667,0.69334 -3.84001,0.69334 z"
         id="path40841" />
      <path
         d="m -248.34204,469.53968 q -2.10667,0 -3.92001,-0.69334 -1.78667,-0.72 -3.12,-2 -1.30667,-1.30667 -2.05334,-3.01334 -0.72,-1.73333 -0.72,-3.78667 0,-2.05334 0.72,-3.76 0.74667,-1.73334 2.05334,-3.01334 1.33333,-1.30667 3.12,-2 1.78667,-0.72001 3.92001,-0.72001 2.10667,0 3.89334,0.72001 1.78667,0.69333 3.09333,1.97333 1.33334,1.28 2.05334,3.01334 0.74667,1.73333 0.74667,3.78667 0,2.05334 -0.74667,3.78667 -0.72,1.73334 -2.05334,3.01334 -1.30666,1.28 -3.09333,2 -1.78667,0.69334 -3.89334,0.69334 z m 0,-1.76001 q 1.68,0 3.09334,-0.56 1.44,-0.58667 2.48,-1.62667 1.06667,-1.06666 1.65333,-2.45333 0.58667,-1.41334 0.58667,-3.09334 0,-1.68 -0.58667,-3.06667 -0.58666,-1.41334 -1.65333,-2.45334 -1.04,-1.06667 -2.48,-1.62667 -1.41334,-0.58666 -3.09334,-0.58666 -1.68,0 -3.12001,0.58666 -1.44,0.56 -2.50667,1.62667 -1.04,1.04 -1.65333,2.45334 -0.58667,1.38667 -0.58667,3.06667 0,1.65334 0.58667,3.06667 0.61333,1.41334 1.65333,2.48 1.06667,1.04 2.50667,1.62667 1.44001,0.56 3.12001,0.56 z"
         id="path40843" />
      <path
         d="m -234.10619,469.37967 v -18.66669 h 1.62667 l 8.53334,14.56002 h -0.85333 l 8.45334,-14.56002 h 1.62667 v 18.66669 h -1.89333 v -15.70668 h 0.45333 l -7.78668,13.33335 h -0.93333 l -7.84001,-13.33335 h 0.50667 v 15.70668 z"
         id="path40845" />
      <path
         d="m -208.6374,469.37967 v -18.66669 h 6.98667 q 2.37334,0 4.08001,0.77334 1.70666,0.74667 2.61333,2.18667 0.93334,1.41333 0.93334,3.44 0,1.97334 -0.93334,3.41334 -0.90667,1.41334 -2.61333,2.18667 -1.70667,0.77333 -4.08001,0.77333 h -5.89334 l 0.88,-0.93333 v 6.82667 z m 1.97333,-6.66667 -0.88,-0.96 h 5.84001 q 2.8,0 4.24,-1.2 1.46667,-1.22667 1.46667,-3.44001 0,-2.24 -1.46667,-3.46667 -1.44,-1.22667 -4.24,-1.22667 h -5.84001 l 0.88,-0.93333 z"
         id="path40847" />
      <path
         d="m -187.97113,459.05966 h 9.86668 v 1.68 h -9.86668 z m 0.21333,8.61335 h 11.22668 v 1.70666 h -13.20001 v -18.66669 h 12.80001 v 1.70667 h -10.82668 z"
         id="path40849" />
      <path
         d="m -168.23985,469.37967 v -16.96002 h -6.56001 v -1.70667 h 15.09335 v 1.70667 h -6.56001 v 16.96002 z"
         id="path40851" />
      <path
         d="m -154.79401,459.05966 h 9.86668 v 1.68 h -9.86668 z m 0.21334,8.61335 h 11.22668 v 1.70666 h -13.20002 v -18.66669 h 12.80002 v 1.70667 h -10.82668 z"
         id="path40853" />
    </g>
    <g
       aria-label="01
PRACTICE"
       transform="matrix(0.26458333,0,0,0.26458333,3.5861659,-82.51237)"
       id="text34033-3"
       style="font-size:26.6667px;line-height:1.25;font-family:Montserrat;-inkscape-font-specification:Montserrat;text-align:center;white-space:pre;shape-inside:url(#rect34035-5);fill:#ffffff">
      <path
         d="m -214.82991,436.2063 q -2.16001,0 -3.84001,-1.12 -1.68,-1.14667 -2.64,-3.25334 -0.96,-2.13333 -0.96,-5.12 0,-2.98667 0.96,-5.09334 0.96,-2.13334 2.64,-3.25334 1.68,-1.14667 3.84001,-1.14667 2.16,0 3.84,1.14667 1.68,1.12 2.64,3.25334 0.98667,2.10667 0.98667,5.09334 0,2.98667 -0.98667,5.12 -0.96,2.10667 -2.64,3.25334 -1.68,1.12 -3.84,1.12 z m 0,-1.76 q 1.65333,0 2.88,-0.88 1.22667,-0.90667 1.92,-2.61334 0.69334,-1.73333 0.69334,-4.24 0,-2.50667 -0.69334,-4.21334 -0.69333,-1.73334 -1.92,-2.61334 -1.22667,-0.90667 -2.88,-0.90667 -1.60001,0 -2.85334,0.90667 -1.25334,0.88 -1.94667,2.61334 -0.69334,1.70667 -0.69334,4.21334 0,2.50667 0.69334,4.24 0.69333,1.70667 1.94667,2.61334 1.25333,0.88 2.85334,0.88 z"
         id="path40856" />
      <path
         d="m -201.36031,436.0463 v -17.86669 l 0.85333,0.90667 h -5.25334 v -1.70667 h 6.32001 v 18.66669 z"
         id="path40858" />
      <path
         d="m -275.14791,469.37967 v -18.66669 h 6.98668 q 2.37333,0 4.08,0.77334 1.70667,0.74667 2.61334,2.18667 0.93333,1.41333 0.93333,3.44 0,1.97334 -0.93333,3.41334 -0.90667,1.41334 -2.61334,2.18667 -1.70667,0.77333 -4.08,0.77333 h -5.89334 l 0.88,-0.93333 v 6.82667 z m 1.97334,-6.66667 -0.88,-0.96 h 5.84 q 2.80001,0 4.24001,-1.2 1.46667,-1.22667 1.46667,-3.44001 0,-2.24 -1.46667,-3.46667 -1.44,-1.22667 -4.24001,-1.22667 h -5.84 l 0.88,-0.93333 z"
         id="path40860" />
      <path
         d="m -256.24163,469.37967 v -18.66669 h 6.98667 q 2.37334,0 4.08001,0.77334 1.70667,0.74667 2.61333,2.18667 0.93334,1.41333 0.93334,3.44 0,1.97334 -0.93334,3.41334 -0.90666,1.41334 -2.61333,2.18667 -1.70667,0.74667 -4.08001,0.74667 h -5.89334 l 0.88,-0.90667 v 6.82667 z m 12.74668,0 -4.80001,-6.77334 h 2.13334 l 4.82667,6.77334 z m -10.77335,-6.66667 -0.88,-0.93333 h 5.84001 q 2.8,0 4.24,-1.22667 1.46667,-1.22667 1.46667,-3.44001 0,-2.24 -1.46667,-3.46667 -1.44,-1.22667 -4.24,-1.22667 h -5.84001 l 0.88,-0.93333 z"
         id="path40862" />
      <path
         d="m -239.95745,469.37967 8.53335,-18.66669 h 1.94667 l 8.53334,18.66669 h -2.08 l -7.84001,-17.52002 h 0.8 l -7.84001,17.52002 z m 3.36001,-4.98667 0.58667,-1.6 h 10.85334 l 0.58667,1.6 z"
         id="path40864" />
      <path
         d="m -210.00991,469.53968 q -2.10667,0 -3.89334,-0.69334 -1.78667,-0.72 -3.09333,-2 -1.30667,-1.28 -2.05334,-3.01334 -0.72,-1.73333 -0.72,-3.78667 0,-2.05334 0.72,-3.78667 0.74667,-1.73334 2.05334,-3.01334 1.33333,-1.28 3.12,-1.97333 1.78667,-0.72001 3.89334,-0.72001 2.02667,0 3.81334,0.69334 1.78667,0.66667 3.01333,2.02667 l -1.25333,1.25333 q -1.14667,-1.17333 -2.53334,-1.68 -1.38667,-0.53333 -2.98667,-0.53333 -1.68,0 -3.12,0.58666 -1.44,0.56 -2.50667,1.62667 -1.06667,1.04 -1.68,2.45334 -0.58667,1.38667 -0.58667,3.06667 0,1.68 0.58667,3.09334 0.61333,1.38667 1.68,2.45333 1.06667,1.04 2.50667,1.62667 1.44,0.56 3.12,0.56 1.6,0 2.98667,-0.53333 1.38667,-0.53334 2.53334,-1.70667 l 1.25333,1.25333 q -1.22666,1.36001 -3.01333,2.05334 -1.78667,0.69334 -3.84001,0.69334 z"
         id="path40866" />
      <path
         d="m -195.58364,469.37967 v -16.96002 h -6.56001 v -1.70667 h 15.09336 v 1.70667 h -6.56001 v 16.96002 z"
         id="path40868" />
      <path
         d="m -183.89779,469.37967 v -18.66669 h 1.97333 v 18.66669 z"
         id="path40870" />
      <path
         d="m -167.71819,469.53968 q -2.10667,0 -3.89334,-0.69334 -1.78666,-0.72 -3.09333,-2 -1.30667,-1.28 -2.05334,-3.01334 -0.72,-1.73333 -0.72,-3.78667 0,-2.05334 0.72,-3.78667 0.74667,-1.73334 2.05334,-3.01334 1.33333,-1.28 3.12,-1.97333 1.78667,-0.72001 3.89334,-0.72001 2.02667,0 3.81334,0.69334 1.78667,0.66667 3.01333,2.02667 l -1.25333,1.25333 q -1.14667,-1.17333 -2.53334,-1.68 -1.38666,-0.53333 -2.98667,-0.53333 -1.68,0 -3.12,0.58666 -1.44,0.56 -2.50667,1.62667 -1.06667,1.04 -1.68,2.45334 -0.58667,1.38667 -0.58667,3.06667 0,1.68 0.58667,3.09334 0.61333,1.38667 1.68,2.45333 1.06667,1.04 2.50667,1.62667 1.44,0.56 3.12,0.56 1.60001,0 2.98667,-0.53333 1.38667,-0.53334 2.53334,-1.70667 l 1.25333,1.25333 q -1.22666,1.36001 -3.01333,2.05334 -1.78667,0.69334 -3.84001,0.69334 z"
         id="path40872" />
      <path
         d="m -154.89817,459.05966 h 9.86667 v 1.68 h -9.86667 z m 0.21333,8.61335 h 11.22668 v 1.70666 h -13.20002 v -18.66669 h 12.80002 v 1.70667 h -10.82668 z"
         id="path40874" />
    </g>
  </g>
</svg>
