<?xml version="1.0" encoding="UTF-8" standalone="no"?>
<!-- Created with Inkscape (http://www.inkscape.org/) -->

<svg
   width="130.7991mm"
   height="130.7991mm"
   viewBox="0 0 130.7991 130.7991"
   version="1.1"
   id="svg5"
   inkscape:version="1.1.2 (b8e25be8, 2022-02-05)"
   sodipodi:docname="solution.svg"
   xmlns:inkscape="http://www.inkscape.org/namespaces/inkscape"
   xmlns:sodipodi="http://sodipodi.sourceforge.net/DTD/sodipodi-0.dtd"
   xmlns="http://www.w3.org/2000/svg"
   xmlns:svg="http://www.w3.org/2000/svg">
  <sodipodi:namedview
     id="namedview7"
     pagecolor="#ffffff"
     bordercolor="#666666"
     borderopacity="1.0"
     inkscape:pageshadow="2"
     inkscape:pageopacity="0.0"
     inkscape:pagecheckerboard="0"
     inkscape:document-units="mm"
     showgrid="false"
     inkscape:zoom="0.70710678"
     inkscape:cx="361.33157"
     inkscape:cy="289.91378"
     inkscape:window-width="1728"
     inkscape:window-height="962"
     inkscape:window-x="857"
     inkscape:window-y="1478"
     inkscape:window-maximized="1"
     inkscape:current-layer="layer1" />
  <defs
     id="defs2">
    <rect
       x="-347.89655"
       y="128.69344"
       width="91.923882"
       height="77.781746"
       id="rect8429" />
  </defs>
  <g
     inkscape:label="Layer 1"
     inkscape:groupmode="layer"
     id="layer1"
     transform="translate(119.37455,-14.240029)">
    <path
       style="fill:#691a76;fill-opacity:1;stroke:none;stroke-width:1.165;stroke-linecap:round;stroke-linejoin:round;paint-order:stroke fill markers"
       d="m -37.658498,99.006219 c -7.884817,6.615861 -18.982787,7.819291 -28.102459,3.047331 l -20.912394,9.11346 -4.419006,22.37981 c 26.704619,18.30127 62.766147,14.39088 84.9271286,-9.2092 l -22.3798076,-4.41901 z"
       id="path1620" />
    <path
       style="fill:#666666;fill-opacity:1;stroke:none;stroke-width:1.165;stroke-linecap:round;stroke-linejoin:round;paint-order:stroke fill markers"
       d="m -107.88224,42.522225 c -18.30127,26.704619 -14.39088,62.766145 9.209204,84.927125 l 4.419007,-22.3798 20.912394,-9.113466 c -6.615861,-7.884817 -7.819287,-18.982787 -3.047333,-28.102459 L -85.50243,46.941231 Z"
       id="path1618" />
    <path
       style="fill:#666666;fill-opacity:1;stroke:none;stroke-width:1.165;stroke-linecap:round;stroke-linejoin:round;paint-order:stroke fill markers"
       d="m -9.2769632,31.829812 -4.4190058,22.379807 -20.912394,9.113463 c 6.615861,7.884816 7.819286,18.982786 3.047333,28.102458 l 9.113462,20.91239 22.37980746,4.41901 C 18.233509,90.052321 14.323122,53.990794 -9.2769632,31.829812 Z"
       id="path1616" />
    <path
       style="fill:#691a75;fill-opacity:1;stroke:none;stroke-width:1.165;stroke-linecap:round;stroke-linejoin:round;paint-order:stroke fill markers"
       d="M -16.857642,25.732344 C -43.562261,7.4310746 -79.623789,11.341461 -101.78477,34.941546 l 22.379807,4.419007 9.113463,20.912394 c 7.884817,-6.615862 18.982787,-7.819287 28.102458,-3.047333 l 20.912394,-9.113463 z"
       id="path846" />
    <text
       xml:space="preserve"
       transform="scale(0.26458333)"
       id="text8427"
       style="font-style:normal;font-weight:normal;font-size:40px;line-height:1.25;font-family:sans-serif;white-space:pre;shape-inside:url(#rect8429);fill:#000000;fill-opacity:1;stroke:none" />
    <text
       xml:space="preserve"
       style="font-style:normal;font-variant:normal;font-weight:normal;font-stretch:normal;font-size:5.64444px;line-height:1.25;font-family:Montserrat;-inkscape-font-specification:Montserrat;fill:#000000;fill-opacity:1;stroke:none;stroke-width:0.264583"
       x="-74.087112"
       y="29.934185"
       id="text22884"><tspan
         sodipodi:role="line"
         id="tspan22882"
         style="font-style:normal;font-variant:normal;font-weight:normal;font-stretch:normal;font-size:5.64444px;font-family:Montserrat;-inkscape-font-specification:Montserrat;stroke-width:0.264583"
         x="-74.087112"
         y="29.934185" /></text>
    <g
       aria-label="01
COMPETE"
       id="text24648"
       style="font-size:7.05556px;line-height:1.25;font-family:Montserrat;-inkscape-font-specification:Montserrat;text-align:center;text-anchor:middle;fill:#ffffff;stroke-width:0.264583">
      <path
         d="m -54.802839,32.312376 q -0.571501,0 -1.016001,-0.296334 -0.4445,-0.303389 -0.6985,-0.860778 -0.254,-0.564445 -0.254,-1.354668 0,-0.790222 0.254,-1.347612 0.254,-0.564444 0.6985,-0.860778 0.4445,-0.303389 1.016001,-0.303389 0.5715,0 1.016,0.303389 0.444501,0.296334 0.698501,0.860778 0.261056,0.55739 0.261056,1.347612 0,0.790223 -0.261056,1.354668 -0.254,0.557389 -0.698501,0.860778 -0.4445,0.296334 -1.016,0.296334 z m 0,-0.465667 q 0.437445,0 0.762,-0.232834 0.324556,-0.239889 0.508001,-0.691445 0.183444,-0.458611 0.183444,-1.121834 0,-0.663222 -0.183444,-1.114778 -0.183445,-0.458612 -0.508001,-0.691445 -0.324555,-0.239889 -0.762,-0.239889 -0.423334,0 -0.754945,0.239889 -0.331611,0.232833 -0.515056,0.691445 -0.183445,0.451556 -0.183445,1.114778 0,0.663223 0.183445,1.121834 0.183445,0.451556 0.515056,0.691445 0.331611,0.232834 0.754945,0.232834 z"
         id="path33121" />
      <path
         d="m -51.239009,32.270042 v -4.727225 l 0.225777,0.239889 h -1.389945 V 27.33115 h 1.672168 v 4.938892 z"
         id="path33123" />
      <path
         d="m -68.644635,41.131826 q -0.55739,0 -1.030112,-0.183445 -0.472723,-0.1905 -0.818445,-0.529167 -0.345723,-0.338667 -0.543278,-0.797278 -0.1905,-0.458611 -0.1905,-1.001889 0,-0.543279 0.1905,-1.00189 0.197555,-0.458611 0.543278,-0.797278 0.352778,-0.338667 0.8255,-0.522112 0.472723,-0.1905 1.030112,-0.1905 0.536223,0 1.008945,0.183445 0.472723,0.176389 0.797278,0.536222 l -0.331611,0.331612 q -0.303389,-0.310445 -0.670278,-0.444501 -0.366889,-0.141111 -0.790223,-0.141111 -0.4445,0 -0.8255,0.155222 -0.381001,0.148167 -0.663223,0.43039 -0.282222,0.275166 -0.4445,0.649111 -0.155223,0.366889 -0.155223,0.81139 0,0.4445 0.155223,0.818444 0.162278,0.36689 0.4445,0.649112 0.282222,0.275167 0.663223,0.430389 0.381,0.148167 0.8255,0.148167 0.423334,0 0.790223,-0.141111 0.366889,-0.141111 0.670278,-0.451556 l 0.331611,0.331611 q -0.324555,0.359834 -0.797278,0.543278 -0.472722,0.183445 -1.016,0.183445 z"
         id="path33125" />
      <path
         d="m -63.669583,41.131826 q -0.55739,0 -1.037168,-0.183445 -0.472722,-0.1905 -0.8255,-0.529167 -0.345723,-0.345722 -0.543278,-0.797278 -0.190501,-0.458611 -0.190501,-1.001889 0,-0.543279 0.190501,-0.994834 0.197555,-0.458612 0.543278,-0.797279 0.352778,-0.345722 0.8255,-0.529167 0.472723,-0.1905 1.037168,-0.1905 0.557389,0 1.030111,0.1905 0.472723,0.183445 0.818445,0.522112 0.352778,0.338667 0.543278,0.797278 0.197556,0.458611 0.197556,1.00189 0,0.543278 -0.197556,1.001889 -0.1905,0.458611 -0.543278,0.797278 -0.345722,0.338667 -0.818445,0.529167 -0.472722,0.183445 -1.030111,0.183445 z m 0,-0.465667 q 0.4445,0 0.818444,-0.148167 0.381001,-0.155222 0.656168,-0.430389 0.282222,-0.282222 0.437444,-0.649112 0.155223,-0.373944 0.155223,-0.818444 0,-0.444501 -0.155223,-0.81139 -0.155222,-0.373945 -0.437444,-0.649111 -0.275167,-0.282223 -0.656168,-0.43039 -0.373944,-0.155222 -0.818444,-0.155222 -0.444501,0 -0.825501,0.155222 -0.381,0.148167 -0.663223,0.43039 -0.275167,0.275166 -0.437444,0.649111 -0.155223,0.366889 -0.155223,0.81139 0,0.437444 0.155223,0.811389 0.162277,0.373945 0.437444,0.656167 0.282223,0.275167 0.663223,0.430389 0.381,0.148167 0.825501,0.148167 z"
         id="path33127" />
      <path
         d="M -59.903017,41.089493 V 36.1506 h 0.430389 l 2.25778,3.852336 h -0.225778 l 2.236612,-3.852336 h 0.430389 v 4.938893 h -0.500944 v -4.155725 h 0.119944 l -2.060223,3.52778 h -0.246945 l -2.074335,-3.52778 h 0.134056 v 4.155725 z"
         id="path33129" />
      <path
         d="M -53.164406,41.089493 V 36.1506 h 1.848557 q 0.627945,0 1.079501,0.204612 0.451556,0.197555 0.691445,0.578556 0.246944,0.373944 0.246944,0.910167 0,0.522111 -0.246944,0.903112 -0.239889,0.373944 -0.691445,0.578556 -0.451556,0.204611 -1.079501,0.204611 h -1.559279 l 0.232834,-0.246945 v 1.806224 z m 0.522112,-1.76389 -0.232834,-0.254001 h 1.545168 q 0.740834,0 1.121834,-0.3175 0.388056,-0.324556 0.388056,-0.910167 0,-0.592667 -0.388056,-0.917223 -0.381,-0.324556 -1.121834,-0.324556 h -1.545168 l 0.232834,-0.246944 z"
         id="path33131" />
      <path
         d="m -47.696457,38.358991 h 2.610557 v 0.4445 h -2.610557 z m 0.05644,2.278946 h 2.970391 v 0.451556 h -3.492502 V 36.1506 h 3.386668 v 0.451556 h -2.864557 z"
         id="path33133" />
      <path
         d="m -42.475893,41.089493 v -4.487337 h -1.735668 V 36.1506 h 3.993447 v 0.451556 h -1.735668 v 4.487337 z"
         id="path33135" />
      <path
         d="m -38.918349,38.358991 h 2.610557 v 0.4445 h -2.610557 z m 0.05644,2.278946 h 2.97039 v 0.451556 h -3.492502 V 36.1506 h 3.386669 v 0.451556 h -2.864557 z"
         id="path33137" />
    </g>
    <g
       aria-label="03
DRILL"
       id="text24648-1"
       style="font-size:7.05556px;line-height:1.25;font-family:Montserrat;-inkscape-font-specification:Montserrat;text-align:center;text-anchor:middle;fill:#ffffff;stroke-width:0.264583">
      <path
         d="m -57.631739,126.58368 q -0.5715,0 -1.016001,-0.29634 -0.4445,-0.30339 -0.6985,-0.86077 -0.254,-0.56445 -0.254,-1.35467 0,-0.79023 0.254,-1.34761 0.254,-0.56445 0.6985,-0.86078 0.444501,-0.30339 1.016001,-0.30339 0.5715,0 1.016001,0.30339 0.4445,0.29633 0.6985,0.86078 0.261056,0.55738 0.261056,1.34761 0,0.79022 -0.261056,1.35467 -0.254,0.55738 -0.6985,0.86077 -0.444501,0.29634 -1.016001,0.29634 z m 0,-0.46567 q 0.437445,0 0.762,-0.23283 0.324556,-0.23989 0.508001,-0.69145 0.183444,-0.45861 0.183444,-1.12183 0,-0.66323 -0.183444,-1.11478 -0.183445,-0.45861 -0.508001,-0.69145 -0.324555,-0.23988 -0.762,-0.23988 -0.423334,0 -0.754945,0.23988 -0.331611,0.23284 -0.515056,0.69145 -0.183444,0.45155 -0.183444,1.11478 0,0.66322 0.183444,1.12183 0.183445,0.45156 0.515056,0.69145 0.331611,0.23283 0.754945,0.23283 z"
         id="path33140" />
      <path
         d="m -53.522978,126.58368 q -0.536222,0 -1.016,-0.16934 -0.472723,-0.17639 -0.762001,-0.46566 l 0.246945,-0.40217 q 0.239889,0.24694 0.642056,0.40922 0.409222,0.16228 0.889,0.16228 0.613834,0 0.93839,-0.26811 0.331611,-0.26811 0.331611,-0.71967 0,-0.45155 -0.324556,-0.71967 -0.3175,-0.26811 -1.008945,-0.26811 h -0.352778 v -0.37394 l 1.524001,-1.91206 0.07056,0.19756 h -2.751668 v -0.45156 h 3.175002 v 0.35984 l -1.524001,1.91205 -0.246945,-0.16228 h 0.1905 q 0.889001,0 1.326445,0.39512 0.444501,0.39511 0.444501,1.016 0,0.41627 -0.197556,0.74789 -0.197556,0.33161 -0.599723,0.52211 -0.395111,0.1905 -0.994834,0.1905 z"
         id="path33142" />
      <path
         d="m -65.563787,135.36079 v -4.93889 h 2.010835 q 0.790222,0 1.382889,0.3175 0.599723,0.31045 0.931334,0.86784 0.331612,0.55739 0.331612,1.28411 0,0.72672 -0.331612,1.28411 -0.331611,0.55739 -0.931334,0.87489 -0.592667,0.31044 -1.382889,0.31044 z m 0.522111,-0.45155 h 1.460501 q 0.656167,0 1.135945,-0.254 0.486834,-0.26106 0.754945,-0.71261 0.268112,-0.45862 0.268112,-1.05128 0,-0.59972 -0.268112,-1.05128 -0.268111,-0.45156 -0.754945,-0.70556 -0.479778,-0.26105 -1.135945,-0.26105 h -1.460501 z"
         id="path33144" />
      <path
         d="m -59.734682,135.36079 v -4.93889 h 1.848557 q 0.627945,0 1.079501,0.20461 0.451556,0.19756 0.691445,0.57856 0.246944,0.37394 0.246944,0.91017 0,0.52211 -0.246944,0.90311 -0.239889,0.37394 -0.691445,0.57855 -0.451556,0.19756 -1.079501,0.19756 h -1.559279 l 0.232834,-0.23989 v 1.80622 z m 3.372558,0 -1.270001,-1.79211 h 0.564445 l 1.277056,1.79211 z m -2.850446,-1.76389 -0.232834,-0.24694 h 1.545168 q 0.740834,0 1.121834,-0.32456 0.388056,-0.32455 0.388056,-0.91016 0,-0.59267 -0.388056,-0.91723 -0.381,-0.32455 -1.121834,-0.32455 h -1.545168 l 0.232834,-0.24695 z"
         id="path33146" />
      <path
         d="m -54.635937,135.36079 v -4.93889 h 0.522111 v 4.93889 z"
         id="path33148" />
      <path
         d="m -52.499977,135.36079 v -4.93889 h 0.522112 v 4.48734 h 2.765779 v 0.45155 z"
         id="path33150" />
      <path
         d="m -48.338298,135.36079 v -4.93889 h 0.522111 v 4.48734 h 2.76578 v 0.45155 z"
         id="path33152" />
    </g>
    <g
       aria-label="04
GAME
PLAN"
       id="text24648-7"
       style="font-size:7.05556px;line-height:1.25;font-family:Montserrat;-inkscape-font-specification:Montserrat;text-align:center;text-anchor:middle;fill:#ffffff;stroke-width:0.264583">
      <path
         d="m -102.97059,69.206136 q -0.5715,0 -1.016,-0.296333 -0.4445,-0.303389 -0.6985,-0.860778 -0.254,-0.564445 -0.254,-1.354668 0,-0.790223 0.254,-1.347612 0.254,-0.564445 0.6985,-0.860778 0.4445,-0.303389 1.016,-0.303389 0.5715,0 1.016,0.303389 0.4445,0.296333 0.6985,0.860778 0.26106,0.557389 0.26106,1.347612 0,0.790223 -0.26106,1.354668 -0.254,0.557389 -0.6985,0.860778 -0.4445,0.296333 -1.016,0.296333 z m 0,-0.465667 q 0.43744,0 0.762,-0.232833 0.32456,-0.239889 0.508,-0.691445 0.18344,-0.458611 0.18344,-1.121834 0,-0.663223 -0.18344,-1.114778 -0.18344,-0.458612 -0.508,-0.691445 -0.32456,-0.239889 -0.762,-0.239889 -0.42333,0 -0.75495,0.239889 -0.33161,0.232833 -0.51505,0.691445 -0.18345,0.451555 -0.18345,1.114778 0,0.663223 0.18345,1.121834 0.18344,0.451556 0.51505,0.691445 0.33162,0.232833 0.75495,0.232833 z"
         id="path33155" />
      <path
         d="m -100.35221,67.86558 v -0.366889 l 2.617616,-3.27378 h 0.564445 l -2.596446,3.27378 -0.275165,-0.08467 h 3.972278 v 0.451556 z m 2.78695,1.298223 V 67.86558 l 0.01411,-0.451556 v -1.143001 h 0.493889 v 2.89278 z"
         id="path33157" />
      <path
         d="m -108.66079,78.025587 q -0.56444,0 -1.04422,-0.183445 -0.47273,-0.1905 -0.8255,-0.529167 -0.34573,-0.338667 -0.54328,-0.797278 -0.1905,-0.458612 -0.1905,-1.00189 0,-0.543278 0.1905,-1.001889 0.19755,-0.458612 0.55033,-0.797279 0.35278,-0.338667 0.8255,-0.522111 0.47978,-0.1905 1.04423,-0.1905 0.56444,0 1.03011,0.176389 0.47272,0.176389 0.80433,0.536222 l -0.32455,0.331612 q -0.31045,-0.310445 -0.68439,-0.444501 -0.37395,-0.134055 -0.80434,-0.134055 -0.45861,0 -0.84667,0.155222 -0.381,0.148167 -0.67027,0.430389 -0.28223,0.275167 -0.4445,0.649112 -0.15523,0.366889 -0.15523,0.811389 0,0.437445 0.15523,0.81139 0.16227,0.373944 0.4445,0.656167 0.28927,0.275167 0.67027,0.430389 0.38806,0.148167 0.83962,0.148167 0.42333,0 0.79727,-0.127 0.38101,-0.127001 0.69851,-0.43039 l 0.29633,0.395112 q -0.35278,0.310444 -0.8255,0.472722 -0.47272,0.155223 -0.98778,0.155223 z m 1.31233,-0.691445 v -1.820335 h 0.50095 v 1.883835 z"
         id="path33159" />
      <path
         d="m -106.16004,77.983253 2.25778,-4.938892 h 0.51506 l 2.25778,4.938892 h -0.55033 l -2.07434,-4.635503 h 0.21167 l -2.07434,4.635503 z m 0.88901,-1.31939 0.15522,-0.423333 h 2.87161 l 0.15522,0.423333 z"
         id="path33161" />
      <path
         d="m -100.31241,77.983253 v -4.938892 h 0.430391 l 2.257779,3.852336 h -0.225778 l 2.236613,-3.852336 h 0.430389 v 4.938892 h -0.500945 v -4.155725 h 0.119944 l -2.060223,3.52778 h -0.246945 l -2.074334,-3.52778 h 0.134055 v 4.155725 z"
         id="path33163" />
      <path
         d="m -93.10813,75.252751 h 2.610557 v 0.444501 h -2.610557 z m 0.05644,2.278946 h 2.970391 v 0.451556 h -3.492502 v -4.938892 h 3.386669 v 0.451556 h -2.864558 z"
         id="path33165" />
      <path
         d="m -109.81399,86.802703 v -4.938892 h 1.84856 q 0.62794,0 1.0795,0.204612 0.45155,0.197555 0.69144,0.578555 0.24695,0.373945 0.24695,0.910168 0,0.522111 -0.24695,0.903111 -0.23989,0.373945 -0.69144,0.578556 -0.45156,0.204612 -1.0795,0.204612 h -1.55928 l 0.23283,-0.246945 v 1.806223 z m 0.52211,-1.76389 -0.23283,-0.254 h 1.54517 q 0.74083,0 1.12183,-0.3175 0.38806,-0.324556 0.38806,-0.910167 0,-0.592667 -0.38806,-0.917223 -0.381,-0.324556 -1.12183,-0.324556 h -1.54517 l 0.23283,-0.246944 z"
         id="path33167" />
      <path
         d="m -104.81171,86.802703 v -4.938892 h 0.52211 v 4.487337 h 2.76578 v 0.451555 z"
         id="path33169" />
      <path
         d="m -101.44025,86.802703 2.257778,-4.938892 h 0.515056 l 2.257779,4.938892 h -0.550334 L -99.034306,82.1672 h 0.211667 l -2.074331,4.635503 z m 0.889,-1.319389 0.15522,-0.423334 h 2.871614 l 0.155223,0.423334 z"
         id="path33171" />
      <path
         d="m -95.592625,86.802703 v -4.938892 h 0.430389 l 3.407835,4.289781 h -0.225778 v -4.289781 h 0.515056 v 4.938892 h -0.430389 l -3.40078,-4.28978 h 0.225778 v 4.28978 z"
         id="path33173" />
    </g>
    <g
       aria-label="02
DEBRIEF"
       id="text24648-7-1"
       style="font-size:7.05556px;line-height:1.25;font-family:Montserrat;-inkscape-font-specification:Montserrat;text-align:center;text-anchor:middle;fill:#ffffff;stroke-width:0.264583">
      <path
         d="m -11.328383,74.535803 q -0.5715,0 -1.016001,-0.296334 -0.4445,-0.303389 -0.6985,-0.860778 -0.254,-0.564445 -0.254,-1.354668 0,-0.790223 0.254,-1.347612 0.254,-0.564445 0.6985,-0.860778 0.444501,-0.303389 1.016001,-0.303389 0.5715,0 1.016001,0.303389 0.4444999,0.296333 0.6985,0.860778 0.2610557,0.557389 0.2610557,1.347612 0,0.790223 -0.2610557,1.354668 -0.2540001,0.557389 -0.6985,0.860778 -0.444501,0.296334 -1.016001,0.296334 z m 0,-0.465667 q 0.437445,0 0.762,-0.232834 0.324556,-0.239889 0.508001,-0.691445 0.1834443,-0.458611 0.1834443,-1.121834 0,-0.663222 -0.1834443,-1.114778 -0.183445,-0.458612 -0.508001,-0.691445 -0.324555,-0.239889 -0.762,-0.239889 -0.423334,0 -0.754945,0.239889 -0.331611,0.232833 -0.515056,0.691445 -0.183444,0.451556 -0.183444,1.114778 0,0.663223 0.183444,1.121834 0.183445,0.451556 0.515056,0.691445 0.331611,0.232834 0.754945,0.232834 z"
         id="path33176" />
      <path
         d="m -8.717054,74.493469 v -0.359833 l 2.053168,-2.010835 q 0.2822224,-0.275167 0.4233336,-0.479778 0.1411112,-0.211667 0.1905001,-0.395111 0.049389,-0.183445 0.049389,-0.345723 0,-0.430389 -0.2963336,-0.677334 -0.2892779,-0.246944 -0.8607783,-0.246944 -0.4374447,0 -0.7761116,0.134055 -0.3316113,0.134056 -0.5715004,0.416278 L -8.8652207,70.2178 q 0.2892779,-0.338667 0.7408338,-0.522112 0.4515558,-0.183444 1.0089451,-0.183444 0.5009447,0 0.8678339,0.162278 0.3668891,0.155222 0.5644448,0.458611 0.2046112,0.303389 0.2046112,0.712612 0,0.239889 -0.070556,0.472722 -0.0635,0.232834 -0.239889,0.493889 -0.1693335,0.254001 -0.5009448,0.578556 l -1.8838345,1.848557 -0.1411113,-0.197556 h 3.0621131 v 0.451556 z"
         id="path33178" />
      <path
         d="m -24.669235,83.312919 v -4.938892 h 2.010835 q 0.790223,0 1.38289,0.317501 0.599722,0.310444 0.931334,0.867833 0.331611,0.55739 0.331611,1.284112 0,0.726723 -0.331611,1.284112 -0.331612,0.55739 -0.931334,0.87489 -0.592667,0.310444 -1.38289,0.310444 z m 0.522112,-0.451555 h 1.460501 q 0.656167,0 1.135945,-0.254001 0.486834,-0.261055 0.754945,-0.712611 0.268111,-0.458612 0.268111,-1.051279 0,-0.599722 -0.268111,-1.051278 -0.268111,-0.451556 -0.754945,-0.705556 -0.479778,-0.261056 -1.135945,-0.261056 h -1.460501 z"
         id="path33180" />
      <path
         d="m -18.374462,80.582418 h 2.610557 v 0.4445 h -2.610557 z m 0.05644,2.278946 h 2.970391 v 0.451555 h -3.492502 v -4.938892 h 3.386669 v 0.451556 h -2.864558 z"
         id="path33182" />
      <path
         d="m -14.113455,83.312919 v -4.938892 h 2.130779 q 0.825501,0 1.277056,0.331612 0.458612,0.331611 0.458612,0.938389 0,0.402167 -0.1905,0.677334 -0.183445,0.275167 -0.508001,0.416278 -0.3175,0.141111 -0.6985,0.141111 l 0.119944,-0.169333 q 0.472723,0 0.81139,0.148166 0.345722,0.141112 0.536222,0.43039 0.1905005,0.282222 0.1905005,0.705556 0,0.627944 -0.4656665,0.973667 -0.458612,0.345722 -1.389946,0.345722 z m 0.522111,-0.430389 h 1.742724 q 0.649111,0 0.994834,-0.218722 0.345722,-0.225778 0.345722,-0.712612 0,-0.479778 -0.345722,-0.6985 -0.345723,-0.225778 -0.994834,-0.225778 h -1.799168 v -0.430389 h 1.629834 q 0.592667,0 0.917223,-0.225778 0.331611,-0.225778 0.331611,-0.670278 0,-0.451556 -0.331611,-0.670279 -0.324556,-0.225778 -0.917223,-0.225778 h -1.57339 z"
         id="path33184" />
      <path
         d="m -8.7942241,83.312919 v -4.938892 h 1.8485568 q 0.6279448,0 1.0795007,0.204612 0.4515558,0.197555 0.6914448,0.578555 0.2469447,0.373945 0.2469447,0.910168 0,0.522111 -0.2469447,0.903111 -0.239889,0.373945 -0.6914448,0.578556 -0.4515559,0.197556 -1.0795007,0.197556 h -1.5592788 l 0.2328335,-0.239889 v 1.806223 z m 3.3725577,0 -1.2700008,-1.792112 h 0.5644448 l 1.2770564,1.792112 z m -2.8504462,-1.76389 -0.2328335,-0.246944 h 1.5451676 q 0.7408339,0 1.1218341,-0.324556 0.3880558,-0.324556 0.3880558,-0.910167 0,-0.592667 -0.3880558,-0.917223 -0.3810002,-0.324556 -1.1218341,-0.324556 h -1.5451676 l 0.2328335,-0.246944 z"
         id="path33186" />
      <path
         d="m -3.6954797,83.312919 v -4.938892 h 0.5221115 v 4.938892 z"
         id="path33188" />
      <path
         d="m -1.0938531,80.582418 h 2.6105572 v 0.4445 h -2.6105572 z m 0.056445,2.278946 h 2.9703908 v 0.451555 h -3.4925023 v -4.938892 h 3.3866689 v 0.451556 h -2.8645574 z"
         id="path33190" />
      <path
         d="m 3.6328219,80.765862 h 2.6105573 v 0.451556 H 3.6328219 Z m 0.056445,2.547057 H 3.167155 v -4.938892 h 3.3866688 v 0.451556 H 3.6892664 Z"
         id="path33192" />
    </g>
  </g>
</svg>
