<?xml version="1.0" encoding="UTF-8"?>
<svg id="Layer_2" data-name="Layer 2" xmlns="http://www.w3.org/2000/svg" width="511.97" height="596.09" viewBox="0 0 511.97 596.09">
  <defs>
    <style>
      .cls-1 {
        fill: #ffe400;
      }

      .cls-2 {
        fill: #691a75;
      }
    </style>
  </defs>
  <path class="cls-2" d="M511.94,370.3c-.09-.51-.37-.95-.79-1.24-1.12-.78-27.9-19.11-60.02-16.72-.06-.32-.12-.66-.2-1.01,0-.02-.01-.05-.02-.08,15.23-3.08,31.42-.27,33.25,.06,1.03,.2,2.04-.48,2.25-1.51,.1-.5,0-1.01-.29-1.44-.29-.43-.72-.71-1.22-.81-.18-.04-17.96-3.56-34.94-.03-.22-.79-.47-1.61-.74-2.45,22.84-9.13,50.35-.19,53.44,.87,.49,.18,1.01,.15,1.47-.07,.46-.22,.81-.6,.98-1.08,.18-.49,.15-1.01-.07-1.47-.22-.46-.6-.81-1.08-.98-1.25-.45-30.94-10.9-56.04-.89-.76-1.99-1.6-3.95-2.5-5.81,20.16-6.81,50.67-5.21,54.09-5.01h.05c1.04,.07,1.97-.72,2.04-1.77,.07-1.06-.73-1.98-1.78-2.05-3.51-.23-34.88-2.06-56.18,5.38-.37-.69-.77-1.39-1.21-2.13,15.55-9.87,38.8-8.53,41.41-8.34h.03c.51,.05,1-.11,1.39-.44,.39-.33,.64-.79,.68-1.3,.04-.51-.11-1-.44-1.39s-.79-.63-1.3-.67c-.25-.02-24.62-2.12-42.01,7.78,6.98-8.52,14.27-12.58,14.34-12.62,.92-.5,1.27-1.67,.77-2.6-.5-.92-1.67-1.27-2.6-.77l-.03,.02c-1.47,.83-9.28,5.64-16.37,14.67-.49-.58-.99-1.13-1.46-1.59,1.12-5.14-2.09-7.23-2.74-9.63-.64-2.41,1.89-13.81-3.53-23.56,3.37-3.86,4.87-10.72-2.77-18.06-7.85-7.55-15.68-16.93-18.82-23.47,1.01,.04,2.02,.06,3.03,.06,14.74,0,24.24-11.32,25.39-30.26,.47-7.73-1.9-14.9-6.66-20.18-3.72-4.11-10.77-9.12-23.27-9.61-9.63-21.21-24.6-43.52-42.04-65.06-2.13-2.63-4.3-5.25-6.51-7.86-4.97-5.9-10.11-11.72-15.37-17.41-2.18-2.39-4.4-4.75-6.61-7.09-13.16-13.86-26.8-26.92-39.98-38.57-6-5.31-11.91-10.33-17.64-15-7.09-5.78-13.91-11.03-20.29-15.64C240.48,8.02,230.21,0,217.69,0c-9.4,0-21.36,7.06-35.28,17.59-.78,.59-1.58,1.21-2.37,1.82-7.34,5.71-14.94,12.3-22.51,19.29-16.26,15.03-32.32,31.83-44.98,45.34-22.75,24.27-43.95,50.02-56.43,65.53-4.24,5.26-7.48,9.34-9.43,11.78-2.66,3.33-5.04,6.34-6.95,9.33-3.61,5.65-5.56,11.21-4.6,18.61,1.31,10.32,13.74,48.89,31.72,92.3-11.88,.54-23.34-.28-32.69-2.79,.32,20.23,14.77,47.2,14.77,47.2C30.32,351.37,2.38,357.14,.14,378.66c-2.24,21.52,23.92,33.4,42.71,38.53,17.43,4.77,30.83,7.71,37.57,26.01,6.73,18.3,7.94,38.93,39.01,60.12,19.48,13.29,45.03,24.81,60.85,45.2,10.27,13.24,26.97,50.57,47.04,47.36,9.13-1.46,9.39-16.91,15.89-34.36,6.36-17.06,15.89-30.67,27.69-31.7,17.1-1.52,26.25,38.13,74.9,37.65,50.49-.5,57.15-45.76,40.94-53.62,15.73-14.45,18.95-38.05,12.37-53.94,0,0-1.21,2.08-4.41,5.14-8.79-26.73,4.09-42.55,10.52-47.21,1.64,9.04,.56,16.02,.56,16.02,13.24-5.54,20.95-18.42,24.33-29.01,.18-.57,.35-1.07,.49-1.54,2.72,7.57,7.16,23.71,7.46,47.09,.01,1.04,.87,1.89,1.94,1.89,1.06-.01,1.91-.88,1.9-1.94-.34-26.38-5.37-42.67-8.37-50.08l.74-.65c8.43,13.98,16.88,33.98,16.95,34.16,.31,.71,1,1.17,1.77,1.17,.25,0,.5-.05,.75-.15,.47-.2,.84-.57,1.03-1.04,.19-.47,.19-1-.01-1.47-.09-.21-8.8-20.92-17.57-35.26l1.02-.91c17.69,7.7,28.52,26.93,29.69,29.1v.03c.33,.64,.99,1.04,1.71,1.04,.31,0,.61-.08,.89-.22,.45-.23,.79-.63,.94-1.12,.15-.49,.11-1.01-.12-1.46-1.14-2.17-11.68-21.45-30.06-30.2,1.92-2.01,3.63-4.49,5.09-7.37,7.87,7.87,17.65,19.9,19.54,22.24l.06,.08c.36,.46,.92,.73,1.5,.73,.43,0,.86-.15,1.2-.42,.82-.66,.96-1.87,.3-2.69-.12-.15-11.95-14.94-20.94-23.67,.57-1.49,1.1-3.09,1.56-4.76,22.33,5.56,41.33,25.67,41.51,25.88,.37,.39,.87,.6,1.41,.6,.48,0,.94-.18,1.3-.51,.38-.35,.59-.82,.61-1.33s-.16-1-.51-1.38c-.8-.86-19.87-21.18-43.42-26.99,.32-1.53,.58-3.05,.77-4.52,17.02,1.94,31.03,8.52,39.78,13.71,9.62,5.7,15.07,10.88,15.3,11.09,.36,.35,.83,.54,1.33,.54s1-.21,1.38-.58c.36-.37,.55-.86,.54-1.37,0-.51-.22-.99-.59-1.35-.93-.9-23.04-22.02-57.35-25.86,.24-3.18,.24-6.35,0-9.18,30.26-2.07,56.24,15.33,57.33,16.07,.32,.22,.7,.34,1.09,.34,.63,0,1.22-.31,1.57-.82,.29-.42,.41-.93,.32-1.43ZM148.24,169.71c-20.18,16.11-31.03,35.28-34.19,46.79-3.32,12.07-1.08,24.07,6.33,33.79,3.38,4.43,7.79,8.24,12.72,11.19-10.61,9.89-34.07,17.17-57.56,19.49-4.45-26.35-1.02-50.17,7.89-68.8,17.62-36.87,51.81-60.05,79.11-73.33-9.77,16.1-14.29,30.87-14.29,30.87Z"/>
  <path class="cls-1" d="M407.14,196.55c16.1,.64,22.44,10.24,21.8,20.79-.78,12.86-6.03,22.28-16.92,22.28-15.28,0-30.11-4.74-44.56-9.21-19.4-6.01-38.82-11.68-58.94-14.74-22.39-3.41-47.75-4.59-70.2-1.1-17.42,2.71-33.45,6.95-47.96,17.49-4.37,3.18-8.05,7.16-11.45,11.34s-6.14,8.86-10.3,12.08c-3.82,2.95-8.61,4.04-13.37,4.04-16.7,0-39.76-16.17-32.99-40.78,5.78-21.03,40.38-69.04,111.99-69.04,31.73,0,60.45,15.65,96.49,28.9,23.43,8.61,48.35,16.82,76.42,17.94Z"/>
  <circle class="cls-1" cx="79.23" cy="294.59" r="8.93"/>
  <path class="cls-1" d="M65.91,289.22c-.54,1.33-.88,2.76-.99,4.26-4.23-1.33-7.98-3.04-11-5.22,4.06,.52,8.06,.83,11.99,.96Z"/>
  <path class="cls-1" d="M55.85,303.52c11.24,29.38,61.89,58.92,98.5,34.36,0,0-12.92-5.42-16.94-11.62-27.29,8.89-53.95,3.59-61.81-4.6,22,7.39,64.22,4.66,74.82-16.3-36.12,16.62-77.39,15.98-94.57-1.85Z"/>
  <path class="cls-1" d="M245.86,291.28c3.43,3.79,5.3,3.73,6.56,1.44s-2.23-3.07-6.56-1.44Z"/>
  <path class="cls-1" d="M17.4,373.88c-.93,4.25-.73,18.59,13.88,24.21,14.61,5.62,25.05,8.83,42.07,12.04,17.02,3.21,22,12.84,22.48,30.67,.48,17.82,5.94,31.95,21.19,42.87,15.25,10.92,21.89,10.65,31.47,19.43,13.33,12.2,28.8-.05,35.96,6.42,8.35,7.55,8.03,16.54,15.41,25.05,7.39,8.51,25.21,3.69,21.51-1.61-1.76-2.52-3.56-5.71-5.62-7.06-2.26-1.49-4.72-1.12-5.14-3.05-.8-3.69-1.09-5.46-7.85-9.95s-13.04-15.8-22.65-21.35c-11.4-6.58-5.14-12.68-16.54-22-1.44,4.5-5.3,4.01-5.3,4.01-5.78-15.41-18.62-13.17-18.62-13.17-11.56-11.72-4.5-24.08-10.28-35.16-5.78-11.08-12.02-16.56-13.33-24.97-1.16-7.46,3.53-13.73,6.74-12.92-6.38-15.49-24.44-18.87-24.44-18.87,1.2,9.75-.84,15.89-.84,15.89-7.83-8.31-18.06-9.27-22.88-22.64-18.84,1.08-25.53-2.65-35.16-2.97-4.81-.16-9.52,2.23-13.61,5.02-4.09,2.79-7.56,5.97-8.46,10.11Z"/>
  <path class="cls-1" d="M348.63,398.83c0,4.46,7.41,4.56,4.4,24.18,8.91-1.81,12.52-17.22,10.84-31.07-5-.54-15.23,3.61-15.24,6.88Z"/>
  <path class="cls-1" d="M369.05,391.35c-.12,4.82,4.82,10.24,4.82,10.24,0,0,2.65-4.82,4.09-5.3,3.13,1.08,5.06,3.73,5.06,3.73,2.05-1.81,3.25-4.7,3.25-4.7,2.53,2.41,3.13,3.97,3.13,3.97,3.01-1.81,4.21-3.97,4.21-3.97,1.57,0,3.49,2.41,3.49,2.41,1.57-.84,3.49-3.25,3.73-3.73,1.57,1.44,2.53,3.13,2.53,3.13,1.93-1.32,2.05-3.25,2.05-3.25,7.1,1.57,7.63,4.82,7.75,8.55s-.16,18.06-.16,18.06c6.38-5.78,9.02-14.14,8.07-19.99-1.44-8.91-11.08-10.73-16.02-11-11.8-.64-16.22,.64-36,1.85Z"/>
  <path class="cls-1" d="M326.96,385.51c-.12,2.77,3.37,3.13,4.21,2.05s-.6-2.35-4.21-2.05Z"/>
  <path class="cls-1" d="M372.78,331.06c2.57,1.93,3.93,5.63,6.98,8.51,4.15,3.91,9.39,4.82,13.37,9.03,.6,6.74,7.29,8.86,8.13,14.39,1.02,6.74-.72,16.18-6.5,16.98s-47.1,5.2-48.47,2.63,9.15-3.77,15.17-2.65c-2.25-6.26-13.33-7.22-19.19-8.19s-6.5-5.86-1.77-5.62c4.74,.24,20.87,5.7,24.32-1.93-14.93-7.63-18.22-9.39-18.06-12.28,.18-3.18,6.36-2.06,8.2-1.82,4.89,.65,9.66,2.25,14.61,1.11,.5-.12,1.03-.27,1.4-.63,2.18-2.1-5.62-6.65-6.86-7.69-1.77-1.48-4.75-3.77-4.58-6.4,.32-5.06,9.82-8.03,13.25-5.46Z"/>
  <path class="cls-1" d="M388.67,336.8c24.08-3.37,15.41,9.63,10.84,11.68,1.32,3.13,5.06,6.02,7.59,6.26,4.58-4.82,4.94-9.99,4.94-9.99,2.89,2.41,2.89,5.18,2.89,5.18,5.06-2.89,4.56-5.54,4.82-10.48,.36-6.86,13.43-3.91,9.93,3.01-2.32,4.59-4.15,4.25-6.48,8.99s-5.5,6.66-10.11,9.71c-2.73,1.81-4.18,6.63-3.93,10.24,.36,5.3,2.9,7.76,9.39,12.72,3.31,2.53,8.85,6.5,11.92,7.1s4.76-.84,3.25-1.81-4.46-3.37-2.71-4.03,8.55-.24,9.21-3.13c.66-2.89-4.21-4.7-3.73-6.62,.48-1.93,9.75-3.97,9.03-7.71-.72-3.73-9.27-1.75-9.63-3.07-.23-.83,5.15-5.01,7.06-9.71,1.15-2.82,.68-7.26-1.85-7.71-1.36-.24-3.77,3.45-6.98,3.53s-.4-3.53,1.28-5.86,4.42-10.11-2.81-11.32c-1.36-1.2-3.63-5.66-8.33-5.42-4.73,.24-5.66,3.69-9.15,3.61-5.12-.12-9.81-4.46-17.52-4.15-7.04,.27-9.15,6.5-8.91,8.97Z"/>
  <path class="cls-1" d="M314.38,492.61c4.7,19.15,35.4,18.3,29.5-14.45-7.35,14.57-26.97,12.4-29.5,14.45Z"/>
  <path class="cls-1" d="M375.91,491.41c-1.63,3.49,5.94,7.51,10.52,8.47,6.26-13.41,6.82-24.24,6.82-24.24-7.79,6.9-15.65,12.16-17.34,15.77Z"/>
  <path class="cls-1" d="M332.68,478.53c9.75-4.94,11.56-13.61,11.56-13.61,6.5,8.19,6.86,19.27,6.86,29.14,13.13,2.89,28.3-11.08,31.31-21.43-5.54-11.08-10.24-18.06-19.15-25.17-9.57-7.63-7.83-16.26-13.73-17.1-5.9-.84-19.39,5.3-21.67,18.78-2.29,13.49,3.37,23.6,4.82,29.38Z"/>
  <path class="cls-1" d="M353.59,499.16c-3.77,.48-4.5,6.26-4.74,8.35,17.66-.56,27.13,.08,27.13,.08-1.2-4.98-2.57-8.11-5.94-8.43s-13.98-.32-16.46,0Z"/>
  <path class="cls-1" d="M388.67,464.56c-9.63-4.33-8.79-20.11-6.5-25.77,.6,5.06,6.26,17.34,6.5,25.77Z"/>
  <path class="cls-1" d="M312.45,456.13c2.41,18.3,11.44,22.52,16.02,22.76-2.77-6.62-12.16-12.28-16.02-22.76Z"/>
  <path class="cls-1" d="M313.05,474.35c1.53,3.45,4.74,6.42,5.86,7.06-4.9,1.53-6.82-.72-5.86-7.06Z"/>
  <path class="cls-1" d="M305.91,464.48c-1.2,2.09-5.86,3.29-4.42,6.5,1.9,4.21,7.31,.16,4.42-6.5Z"/>
  <path class="cls-1" d="M298.8,458.99c1.57,1.4,5.35-.47,4.94-6.71-2.03,.2-3.76,.69-4.74,1.84s-.8,4.34-.2,4.87Z"/>
  <path class="cls-1" d="M291.7,445.41c0-2.41,4.7-4.5,5.66-4.62,.12,2.73-.8,6.14-1.2,6.74-2.17,.08-3.89-.36-4.46-2.13Z"/>
  <path class="cls-1" d="M268.74,419.4c6.28,3.34,10.11,9.99,8.79,24.93,2.29,6.26,7.59,8.07,8.67,9.99s1.69,12.52,5.3,17.82c3.61,5.3,4.82,7.22,7.59,20.71s11.2,15.65,11.2,15.65c0,0-2.02,15.61,13.73,16.5,10.72,.6,23-8.43,32.87-8.43s18.06,10.96,24.32,2.17c5.9,16.62-6.86,35.76-40.82,34.92-13.12-.33-18.42-10.11-27.82-12.88-9.39-2.77-12.19-10.85-17.7-19.51-7.99-12.56-8.15-15.45-16.82-21.23-8.67-5.78-5.46-19.43-9.79-26.97,0,0,6.42,.48,12.68,2.25-4.66-15.57-21.35-43.19-21.35-43.19,2.89-8.99,7.87-13.41,9.15-12.72Z"/>
  <path class="cls-1" d="M306.49,492.37c-2.61,.4-.6,4.15,2.53,3.73,.66-3.49-.96-3.97-2.53-3.73Z"/>
  <path class="cls-1" d="M315.7,507.79c-1.99,7.47,3.79,9.21,6.62,8.61,.18-5.48-3.07-4.4-6.62-8.61Z"/>
  <path class="cls-1" d="M351.1,235.89c20.95,2.77,32.71,7.95,36.61,13,5.66,7.35,2.77,13.61,8.67,23.24-9.87-1.57-12.64-8.79-13.13-10.6,0,0,2.05-.36,3.01-1.44-3.97-1.81-7.35-7.35-7.35-7.35-.48,4.33-9.03,6.62-14.69-2.29-4.66-7.33-9.87-12.52-13.13-14.57Z"/>
  <path class="cls-1" d="M395.3,246.24c7.77-.3,8.61,5.24,8.61,5.24-5.84-.42-5.18-1.93-8.61-5.24Z"/>
  <path class="cls-1" d="M396.06,253.35c11.32,5.46,19.67,17.1,17.82,20.87-1.41,2.88-5.38,.72-7.14,.8s-4.33-.4-4.98-5.3c-.64-4.9-2.09-12.52-5.7-16.38Z"/>
  <path class="cls-1" d="M278.43,284.96c1.81-.78,3.31-.84,3.73-3.37,3.19,1.81,7.59-.9,12.16,.84-2.83-6.86-10.66-3.85-12.52-2.41-4.94,1.02-3.37,4.94-3.37,4.94Z"/>
  <path class="cls-1" d="M293.37,290.26c-3.19,.42-3.13,3.73,0,3.55s3.05-3.96,0-3.55Z"/>
  <path class="cls-1" d="M282.53,294.41c-.54,1.2,.78,3.61-.78,5.3-3.49-2.05-.72-4.4,.78-5.3Z"/>
  <path class="cls-1" d="M284.64,299.05c-.18,1.02-1.51,2.71,0,5.72,2.47-2.11,1.81-3.43,0-5.72Z"/>
  <path class="cls-1" d="M310.46,293.21c-1.99,2.11-.24,4.76-.24,4.76,3.25-1.51,.24-4.76,.24-4.76Z"/>
  <path class="cls-1" d="M403.53,284.18c-2.65,0-2.73,4.01-.08,4.01s2.33-4.01,.08-4.01Z"/>
  <path class="cls-1" d="M411.01,285.86c3.07,3.85,3.73,9.81,3.37,11.8l-1.57-1.2c-1.26,2.89,.42,5.66,.42,5.66-6.62-1.51-.78-10.05-2.23-16.26Z"/>
  <path class="cls-1" d="M423.19,291.32c-4.33,2.73-3.13,11.08-2.89,11.96,3.05-.4,5.38,3.85,6.9,4.01s2.65-4.66,1.61-6.9-4.66-4.09-5.62-9.07Z"/>
  <path class="cls-1" d="M296.6,317.73c1.36,2.33,7.39,3.61,9.07,3.13s7.14-7.31,12.2-8.59c-5.46-3.29-8.91-2.01-11.88,.72s-5.46,5.14-9.39,4.74Z"/>
  <path class="cls-1" d="M313.21,320.54c3.77-.48,5.38-5.06,12.2-3.77-3.37,.56-2.25,2.65-4.42,2.81-1.36,2.81-5.46,2.33-7.79,.96Z"/>
  <path class="cls-1" d="M331.84,314.28c10.76,6.74,15.17-1.04,23.04-2.97-10.03-3.61-9.95,3.69-23.04,2.97Z"/>
  <path class="cls-1" d="M366.52,305.97c1.57,1.44,8.91,1.2,9.27,3.25s-.84,11.92,.24,12.88,3.49-2.41,4.82-4.46c1.32-2.05,3.49-5.06,3.49-6.62s-5.66-2.53-8.67-4.58-2.77-.72-9.15-.48Z"/>
  <path class="cls-1" d="M385.86,321.91c3.45-3.05,13.65-3.93,17.5-3.05s7.79,4.01,8.83,4.01,2.97-.64,3.05-2.09c-3.05,.08-6.5-3.85-8.51-6.02-2.01-2.17-7.31-.72-7.79,.64-9.63-.8-10.36,2.09-13.09,6.5Z"/>
  <path class="cls-1" d="M393.97,293.57c-.72,6.14,2.35,9.39,5.78,10.78,3.85,1.55,5.9,1.57,9.99,5.18,4.09,3.61,6.5,4.52,12.64,5.84-5.3-3.85-7.69-7.89-11.56-10.24-4.58-2.77-14.33-6.14-16.86-11.56Z"/>
  <path class="cls-1" d="M326.14,310.11c9.79,1.85,18.08-13.23,28.34-14.05,7.55-.6,9.31,3.21,19.03,3.05,7.83-.13,10.72,2.29,13.49,4.46-4.98-10.4-26.83-15.46-38.85-9.99-9.71,4.42-13.09,12.28-22,16.54Z"/>
  <path class="cls-1" d="M338.9,293.73c8.51-6.58,23.44-9.23,26.81-9.15-3.77-5.14-9.63-2.01-12.2-4.74-2.57-2.73-8.43-2.57-11.24,.4-2.33,2.46-3.85,2.17-4.98,1.28-.72,4.09,4.5,4.25,6.1,.72,2.49,5.22-7.22,4.42-4.5,11.48Z"/>
  <path class="cls-1" d="M291.34,334.43c-.16,1.61,2.69,2.09,5.46,1.81-.48-2.77-4.62-2.33-5.46-1.81Z"/>
  <polygon class="cls-1" points="95.82 123.22 109.79 124.34 111.4 140.08 120.23 124.18 137.09 129 129.06 113.91 138.21 99.62 119.31 106.2 109.95 95.28 108.19 112.78 95.82 123.22"/>
  <path class="cls-1" d="M198.42,35.16l-24.56,1.44-15.89,27.7-.42-25.6c7.56-6.99,15.17-13.58,22.51-19.29l18.37,15.74Z"/>
  <path class="cls-1" d="M365.44,123.02l-18.51,10.64-.8,33.87-18.79-26.01-30.18,13.49,13.65-28.74-18.94-20.71,31.47,3.86,13.62-18.76c2.22,2.34,4.43,4.71,6.61,7.09l.31,15.68,15.05,1.74c2.21,2.6,4.38,5.23,6.51,7.86Z"/>
  <path class="cls-1" d="M58.01,197.96c19.12-28.37,3.22-43.17-18.27-27.28,1.91-2.99,4.29-6,6.95-9.33,1.95-2.44,5.19-6.52,9.43-11.78,26.95-.62,27.47,31.83,1.89,48.39Z"/>
  <path class="cls-1" d="M296.98,52.09c-18.37,15.31-54.72,12.91-64.6-9.94,12.76,9.4,35.5,8.81,46.96-5.06,5.73,4.67,11.64,9.69,17.64,15Z"/>
  <path class="cls-1" d="M255.47,113.75c-17.82,32.03-69.89,32.92-83.57,20.23-15.46-14.34-3.37-46.48,56.35-60.69-23.6,14.57-32.36,33.48-23.84,44.07,6.58,8.19,26.73,9.39,51.06-3.61Z"/>
  <path class="cls-1" d="M310.23,394.63l-.15-.15c-2.75-2.82-5.86-6-8.52-10.17-11.15,4.7-25.42,14.53-35.5,22.01,.1,.84,.34,1.62,.72,2.36l.16,.31h-.02c.48,.49,.92,1.08,1.27,1.63,.03,.04,.05,.09,.07,.14l.11-.06,.2,.15c2.25,1.75,5.35,1.94,6.41,1.3,1.14-.68,2.25-1.65,3.53-2.77,1.98-1.73,4.43-3.87,8.07-5.89,3.24-1.79,7.91-2.71,12.42-3.59,5.37-1.05,10.43-2.04,12.14-4.33-.29-.3-.59-.61-.9-.92Z"/>
  <g>
    <path class="cls-1" d="M265.66,406.15c-.2,7.13,7.6,7.46,9.5,6.31,2.97-1.78,5.62-5.35,11.58-8.65,7.22-3.99,21.98-3.63,24.86-8.29-2.96-3.08-6.8-6.73-9.9-11.67-11.39,4.73-26.18,14.97-36.05,22.31Z"/>
    <path class="cls-1" d="M345.69,270.09c-1.66-13.21-10.32-15.38-14.65-15.86,8.1,8.19,5.05,13.81-.09,12.68-7.94,5.94-13.97,0-8.9-4.33-2.9-4.25-9-.48-11.09,2.01-6.42-4.34-5.98-26.05-33.43-23.28,.48,4.57,8.85,4.4,14.57,10.65,7.83,8.55-.84,18.72-13.37,6.08-13.04,4.54-10.16,14.81-8.54,19.47-9.8,1.12-13.17,9.47-22,3.21,3.37-2.25,3.53-12.36,8.19-15.41-13.01,.96-15.09,14.37-15.74,26.89-3.93,1.21-12.6,0-12.6,0,.4,11.16,18.94,1.76,16.86,14.69-1.52-1.84-3.54-3.05-7.15-2.25-5.25,1.17-12.87,5.43-19.99,6.74,8.19,5.39,16.62-1.51,21.68-1.51-2.37,9.34,.28,14.64,2.33,16.57,10.59-20.83,31.78-21.8,40.58-12.28-5.18,3.85-4.58,8.31-4.58,8.31,5.3-5.78,12.76-5.66,12.76-5.66-1.2,3.61,1.45,6.14,4.95,7.1,3.49,.96,6.62,0,9.99,2.53,3.37,2.53,6.01,1.81,6.01,1.81-2.76,8.78-22.03-2.46-32.62,.09,8.06,2.07,10.47,5.08,10.47,5.08-18.39-2.57-39.6-.48-46.39,1.26-2.41,.62-1.43,1.54-1.43,1.54l1.85-.14c37.58-2.79,54.45,6.42,56.39,7.58-.59,1.7-1.13,3.4-1.64,5.2-28.07-8.46-61.66-4.86-63.08-4.7-.57,.05-1.09,.34-1.45,.79-.36,.45-.53,1.01-.47,1.59,.13,1.19,1.2,2.05,2.39,1.92,1.41-.14,34.81-3.44,61.58,4.63-.15,.67-.29,1.37-.43,2.18-22.52-2.48-52.66-.09-56.03,.2-.58,.04-1.1,.31-1.47,.76-.38,.44-.56,1.01-.5,1.58,.09,1.2,1.13,2.08,2.33,1.97h.1c2.7-.21,16.25-1.21,31.11-1.25-10.33,1.86-20.74,4.84-30.98,8.88-1.1,.43-1.65,1.7-1.22,2.82,.33,.83,1.13,1.36,2.02,1.36,.28,0,.55-.05,.8-.15,24.41-9.64,44.46-10.8,52.66-10.8h.49c-.23,3.03-.18,5.95,.17,8.69-15.8-1.69-33.74,2.67-54.86,13.34-1.06,.54-1.49,1.85-.96,2.91,.37,.73,1.11,1.18,1.94,1.18,.34,0,.68-.07,.98-.22,20.93-10.58,38.52-14.74,53.74-12.74,.14,.58,.31,1.14,.46,1.64-22.55,3.04-48.66,20.1-51.58,22.05-.48,.32-.81,.81-.92,1.38s.01,1.15,.34,1.63c.4,.6,1.07,.96,1.8,.96,.42,0,.85-.13,1.2-.37,.28-.19,28.47-18.9,50.73-21.49,.14,.32,.28,.61,.42,.9-19.47,8.37-46.71,30.62-46.99,30.84-.44,.36-.72,.88-.78,1.46-.06,.57,.11,1.14,.48,1.59,.46,.56,1.18,.86,1.9,.78,0,0-1.68,9.59-10.09,13.26-13.26-1.69-25.77,8.67-32.52-2.17-2.89,18.79,41.67,14.45,38.53,55.15-22.39-24.08-34.91-3.61-56.35-17.82,.97,10.6,35.16,19.02,43.83,43.11-9.15,.48-25.77-5.05-32.27-10.35,0,0-.96,5.84,.96,10.38-13.49-12.07-18.38-16.91-18.38-16.91-7.71,1.44-11.32-8.08-6.98-10.01-7.87-8.19-14.45-12.04-16.86-16.86-2.41-4.81-16.54-18.78-18.79-20.87-2.24-2.09-8.1-22.08-8.59-47.12-.48-25.05,6.26-31.07,9.87-2.41-4.57,30.35,5.79,36.84,7.48,21.19,5.05,9.39,10.73,14.75,14.68,12.4,3.8-2.25-1.48-9.12-5.89-19.74-4.54-10.91-8.95-25.05-6.63-34.56,3.01,3.13,7.34,6.98,10.24,6.74,2.89-.24,5.18-6.74,4.33-29.98-.84-23.25,4.5-74.84,57.92-101.04-29.86,3.86-53.7,45.52-74.65,48.66,20.7-18.31,34.02-36.74,36.6-44.56-7.95,10.12-16.06,14.93-22.63,18.31-7.11,3.63-10.31,10.55-15.73,15.93-4.25,4.23-11.16,5.92-16.79,7.18-11.45,2.57-27.05,4.44-42,4.23,.17-.88,.26-1.79,.26-2.72,0-2.51-.64-4.86-1.77-6.91,31.39-4.72,54.18-18.24,56.89-20.26,2.18,.39,4.37,.59,6.52,.59,7.23,0,13.64-2.01,18.57-5.81,3.89-3,6.68-6.77,9.15-10.09,.88-1.2,1.72-2.33,2.55-3.35,29.4-19.98,52.78-26.64,88.55-25.62,6.38,8.17,6.5,13.83,6.5,13.83,3.62-2.89,3.13-13.83,3.13-13.83,0,0,2.97,.11,5.78,.3-3.25,9.67,1.92,13.53,1.92,13.53,0,0-.41-9.89,2.54-11.68,3.93-1.77,31.54,2.64,44.3,9.63,7.81,4.27,13.05,11.5,13.38,19.51,.22,5.09-1.15,11.26-5.9,15.66Z"/>
  </g>
</svg>